HIERARCHY
ROOT hip
{
  OFFSET 0.0 0.0 0.0
  CHANNELS 6 Xposition Yposition Zposition Zrotation Yrotation Xrotation
  JOINT abdomen
  {
    OFFSET 0.0 20.6881 -0.73152
    CHANNELS 3 Zrotation Xrotation Yrotation
    JOINT chest
    {
      OFFSET 0.0 11.7043 -0.48768
      CHANNELS 3 Zrotation Xrotation Yrotation
      JOINT neck
      {
        OFFSET 0.0 22.1894 -2.19456
        CHANNELS 3 Zrotation Xrotation Yrotation
        JOINT head
        {
          OFFSET -0.24384 7.07133 1.2192
          CHANNELS 3 Zrotation Xrotation Yrotation
          JOINT leftEye
          {
            OFFSET 4.14528 8.04674 8.04672
            CHANNELS 3 Zrotation Xrotation Yrotation
            End Site
            {
              OFFSET 1.0 0.0 0.0
            }
          }
          JOINT rightEye
          {
            OFFSET -3.6576 8.04674 8.04672
            CHANNELS 3 Zrotation Xrotation Yrotation
            End Site
            {
              OFFSET 1.0 0.0 0.0
            }
          }
        }
      }
      JOINT rCollar
      {
        OFFSET -2.68224 19.2634 -4.8768
        CHANNELS 3 Zrotation Xrotation Yrotation
        JOINT rShldr
        {
          OFFSET -8.77824 -1.95073 1.46304
          CHANNELS 3 Zrotation Xrotation Yrotation
          JOINT rForeArm
          {
            OFFSET -28.1742 -1.7115 0.48768
            CHANNELS 3 Zrotation Xrotation Yrotation
            JOINT rHand
            {
              OFFSET -22.5879 0.773209 7.07136
              CHANNELS 3 Zrotation Xrotation Yrotation
              JOINT rThumb1
              {
                OFFSET -1.2192 -0.487915 3.41376
                CHANNELS 3 Zrotation Xrotation Yrotation
                JOINT rThumb2
                {
                  OFFSET -3.37035 -0.52449 3.41376
                  CHANNELS 3 Zrotation Xrotation Yrotation
                  End Site
                  {
                    OFFSET -1.78271 -1.18214 1.43049
                  }
                }
              }
              JOINT rIndex1
              {
                OFFSET -7.75947 0.938293 5.60832
                CHANNELS 3 Zrotation Xrotation Yrotation
                JOINT rIndex2
                {
                  OFFSET -2.54057 -0.884171 1.56538
                  CHANNELS 3 Zrotation Xrotation Yrotation
                  End Site
                  {
                    OFFSET -1.62519 -0.234802 1.16502
                  }
                }
              }
              JOINT rMid1
              {
                OFFSET -8.24714 1.18213 3.41376
                CHANNELS 3 Zrotation Xrotation Yrotation
                JOINT rMid2
                {
                  OFFSET -3.10165 -0.590103 1.0647
                  CHANNELS 3 Zrotation Xrotation Yrotation
                  End Site
                  {
                    OFFSET -2.48547 -0.328903 0.83742
                  }
                }
              }
              JOINT rRing1
              {
                OFFSET -8.82822 0.546677 1.51678
                CHANNELS 3 Zrotation Xrotation Yrotation
                JOINT rRing2
                {
                  OFFSET -2.60934 -0.819778 -0.0198488
                  CHANNELS 3 Zrotation Xrotation Yrotation
                  End Site
                  {
                    OFFSET -2.33842 -0.294052 0.168128
                  }
                }
              }
              JOINT rPinky1
              {
                OFFSET -8.27202 -0.0477905 -0.4584
                CHANNELS 3 Zrotation Xrotation Yrotation
                JOINT rPinky2
                {
                  OFFSET -1.82734 -0.647385 -0.700984
                  CHANNELS 3 Zrotation Xrotation Yrotation
                  End Site
                  {
                    OFFSET -1.69225 -0.51767 -0.607171
                  }
                }
              }
            }
          }
        }
      }
      JOINT lCollar
      {
        OFFSET 2.68224 19.2634 -4.8768
        CHANNELS 3 Zrotation Xrotation Yrotation
        JOINT lShldr
        {
          OFFSET 8.77824 -1.95073 1.46304
          CHANNELS 3 Zrotation Xrotation Yrotation
          JOINT lForeArm
          {
            OFFSET 28.1742 -1.7115 0.48768
            CHANNELS 3 Zrotation Xrotation Yrotation
            JOINT lHand
            {
              OFFSET 22.5879 0.773209 7.07136
              CHANNELS 3 Zrotation Xrotation Yrotation
              JOINT lThumb1
              {
                OFFSET 1.2192 -0.487915 3.41376
                CHANNELS 3 Zrotation Xrotation Yrotation
                JOINT lThumb2
                {
                  OFFSET 3.37035 -0.52449 3.41376
                  CHANNELS 3 Zrotation Xrotation Yrotation
                  End Site
                  {
                    OFFSET 1.78271 -1.18214 1.43049
                  }
                }
              }
              JOINT lIndex1
              {
                OFFSET 7.75947 0.938293 5.60832
                CHANNELS 3 Zrotation Xrotation Yrotation
                JOINT lIndex2
                {
                  OFFSET 2.54057 -0.884171 1.56538
                  CHANNELS 3 Zrotation Xrotation Yrotation
                  End Site
                  {
                    OFFSET 1.62519 -0.234802 1.16502
                  }
                }
              }
              JOINT lMid1
              {
                OFFSET 8.24714 1.18213 3.41376
                CHANNELS 3 Zrotation Xrotation Yrotation
                JOINT lMid2
                {
                  OFFSET 3.10165 -0.590103 1.0647
                  CHANNELS 3 Zrotation Xrotation Yrotation
                  End Site
                  {
                    OFFSET 2.48547 -0.328903 0.83742
                  }
                }
              }
              JOINT lRing1
              {
                OFFSET 8.82822 0.546677 1.51678
                CHANNELS 3 Zrotation Xrotation Yrotation
                JOINT lRing2
                {
                  OFFSET 2.60934 -0.819778 -0.0198488
                  CHANNELS 3 Zrotation Xrotation Yrotation
                  End Site
                  {
                    OFFSET 2.33842 -0.294052 0.168128
                  }
                }
              }
              JOINT lPinky1
              {
                OFFSET 8.27202 -0.0477905 -0.4584
                CHANNELS 3 Zrotation Xrotation Yrotation
                JOINT lPinky2
                {
                  OFFSET 1.82734 -0.647385 -0.700984
                  CHANNELS 3 Zrotation Xrotation Yrotation
                  End Site
                  {
                    OFFSET 1.69225 -0.51767 -0.607171
                  }
                }
              }
            }
          }
        }
      }
    }
  }
  JOINT rButtock
  {
    OFFSET -8.77824 4.35084 1.2192
    CHANNELS 3 Zrotation Xrotation Yrotation
    JOINT rThigh
    {
      OFFSET 0.0 -1.70687 -2.19456
      CHANNELS 3 Zrotation Xrotation Yrotation
      JOINT rShin
      {
        OFFSET 0.0 -36.8199 0.73152
        CHANNELS 3 Zrotation Xrotation Yrotation
        JOINT rFoot
        {
          OFFSET 0.73152 -45.1104 -5.12064
          CHANNELS 3 Zrotation Xrotation Yrotation
          End Site
          {
            OFFSET -1.1221 -3.69964 12.103
          }
        }
      }
    }
  }
  JOINT lButtock
  {
    OFFSET 8.77824 4.35084 1.2192
    CHANNELS 3 Zrotation Xrotation Yrotation
    JOINT lThigh
    {
      OFFSET 0.0 -1.70687 -2.19456
      CHANNELS 3 Zrotation Xrotation Yrotation
      JOINT lShin
      {
        OFFSET 0.0 -36.8199 0.73152
        CHANNELS 3 Zrotation Xrotation Yrotation
        JOINT lFoot
        {
          OFFSET -0.73152 -45.1104 -5.12064
          CHANNELS 3 Zrotation Xrotation Yrotation
          End Site
          {
            OFFSET 1.1221 -3.69964 12.103
          }
        }
      }
    }
  }
}
MOTION
Frames: 7
Frame Time: 0.00833333
-61.9143 73.3493 -35.3362 -230.341 84.2927 -211.825 -1.37959 31.8301 -5.54715 -1.51006 -9.01586 -1.15252 1.80273 19.8313 -1.05614 1.01355 -49.6935 -1.30222 -0.0 0.0 0.0 -0.0 0.0 0.0 -7.68004e-15 -4.76169e-12 -5.92378e-14 82.0376 26.3955 -1.24416 -13.3592 -6.44879 24.2734 -7.39237e-06 0.077637 0.0109112 2.61987e-09 -8.81462e-10 -4.31319e-09 4.51812e-09 -1.5259e-09 -7.46184e-09 2.61988e-09 -8.81463e-10 -4.3132e-09 7.73091 5.47488 0.417314 2.61987e-09 -8.81462e-10 -4.31319e-09 2.90554 0.965183 0.102902 2.61987e-09 -8.81463e-10 -4.31319e-09 10.2786 0.731801 0.0259123 2.61986e-09 -8.81461e-10 -4.31319e-09 2.22167 -0.733487 -0.20892 -7.78105e-15 -4.75214e-12 -5.94366e-14 -81.772 25.0196 3.90527 12.1764 -5.57313 -21.9518 0.617431 -21.746 3.21362 2.01497e-09 -8.79504e-10 5.41448e-09 3.4103e-09 -1.51318e-09 9.38558e-09 2.01497e-09 -8.79504e-10 5.41449e-09 -7.73091 5.47488 -0.417314 2.01497e-09 -8.79507e-10 5.41447e-09 -2.90554 0.965183 -0.102902 2.01497e-09 -8.79504e-10 5.41448e-09 -10.2786 0.731801 -0.0259123 2.01498e-09 -8.795e-10 5.41447e-09 -2.22167 -0.733487 0.20892 -2.03217e-16 0.0 -3.88251e-19 -4.19445 -64.0535 6.19937 -0.409103 44.058 1.0086 -2.11862 -3.01697 -11.3099 2.03217e-16 0.0 3.88251e-19 -3.84168 -7.44672 3.05641 -0.0144258 34.1932 -1.79941 0.484826 -16.4445 -0.975691
-61.0398 73.403 -35.1702 -229.953 84.4471 -211.283 -1.17594 31.8072 -5.49362 -1.56449 -9.02242 -1.13186 1.77925 19.762 -1.01407 1.06071 -49.4599 -1.20387 -0.0 0.0 0.0 -0.0 0.0 0.0 3.76714e-15 -6.52509e-12 -8.68829e-14 81.9976 26.5258 -1.10705 -13.4293 -6.50327 24.4124 1.35454e-05 -0.00385657 -0.000542223 1.99702e-09 -4.78151e-10 -3.33449e-09 3.44454e-09 -8.27782e-10 -5.76857e-09 1.99703e-09 -4.7815e-10 -3.3345e-09 7.73091 5.47488 0.417314 1.99702e-09 -4.78151e-10 -3.33449e-09 2.90554 0.965183 0.102902 1.99702e-09 -4.78151e-10 -3.33449e-09 10.2786 0.731801 0.0259123 1.99701e-09 -4.7815e-10 -3.33449e-09 2.22167 -0.733487 -0.20892 3.64547e-15 -6.51681e-12 -8.70984e-14 -81.7145 25.1766 3.70703 12.1875 -5.58093 -21.9735 0.604958 -21.5396 3.17996 1.33882e-09 -8.67385e-10 3.91754e-09 2.26253e-09 -1.49695e-09 6.78834e-09 1.33882e-09 -8.67385e-10 3.91755e-09 -7.73091 5.47488 -0.417314 1.33883e-09 -8.67388e-10 3.91753e-09 -2.90554 0.965183 -0.102902 1.33882e-09 -8.67385e-10 3.91753e-09 -10.2786 0.731801 -0.0259123 1.33883e-09 -8.67382e-10 3.91753e-09 -2.22167 -0.733487 0.20892 -2.03217e-16 0.0 -3.88251e-19 -3.26902 -63.9529 6.80283 -0.424611 44.64 1.01118 -2.08972 -2.93926 -11.2454 2.03217e-16 0.0 3.88251e-19 -3.3908 -8.05555 3.18152 0.0173202 35.7419 -1.80563 0.452548 -14.8685 -1.25851
-60.1784 73.471 -34.9891 -229.183 84.6419 -210.334 -0.94007 31.7281 -5.41598 -1.61816 -8.99441 -1.10272 1.76027 19.6308 -0.976074 1.10232 -49.0855 -1.12328 -0.0 0.0 0.0 -0.0 0.0 0.0 -1.92866e-16 -8.30069e-12 -1.09419e-13 81.9543 26.6899 -0.977825 -13.5169 -6.57136 24.5866 -2.49432e-05 -0.125201 -0.0175964 1.0803e-09 1.25205e-10 -1.41668e-09 1.86502e-09 2.16812e-10 -2.45092e-09 1.0803e-09 1.25207e-10 -1.41668e-09 7.73091 5.47488 0.417314 1.0803e-09 1.25205e-10 -1.41668e-09 2.90554 0.965183 0.102902 1.0803e-09 1.25205e-10 -1.41668e-09 10.2786 0.731801 0.0259123 1.08029e-09 1.25206e-10 -1.41668e-09 2.22167 -0.733487 -0.20892 -3.28712e-16 -8.29532e-12 -1.0967e-13 -81.645 25.3288 3.46397 12.2008 -5.59018 -21.9996 0.589113 -21.2717 3.13646 4.7077e-10 -7.21694e-10 1.2446e-09 7.98488e-10 -1.24976e-09 2.15611e-09 4.70764e-10 -7.21694e-10 1.24461e-09 -7.73091 5.47488 -0.417314 4.70771e-10 -7.21697e-10 1.2446e-09 -2.90554 0.965183 -0.102902 4.70762e-10 -7.21695e-10 1.2446e-09 -10.2786 0.731801 -0.0259123 4.70777e-10 -7.21692e-10 1.24459e-09 -2.22167 -0.733487 0.20892 -2.03217e-16 0.0 -3.88251e-19 -2.20349 -63.7604 7.59406 -0.436438 45.0495 1.01163 -2.10333 -3.01748 -11.2731 2.03217e-16 0.0 3.88251e-19 -2.87872 -8.76615 3.34826 0.0506861 37.3485 -1.80924 0.435197 -13.0839 -1.56054
-59.3076 73.7275 -34.7926 -228.023 84.8649 -208.975 -0.69534 31.6334 -5.32809 -1.66918 -8.95715 -1.07022 1.74829 19.4908 -0.943454 1.13306 -48.6871 -1.06 -0.0 0.0 0.0 -0.0 0.0 0.0 -9.73597e-15 -9.80819e-12 -1.26109e-13 81.9136 26.8662 -0.860446 -13.6118 -6.6455 24.776 -0.000116917 -0.274257 -0.0385453 2.09883e-10 6.99658e-10 5.30953e-10 3.65465e-10 1.21146e-09 9.18208e-10 2.09889e-10 6.99661e-10 5.3095e-10 7.73091 5.47488 0.417314 2.09883e-10 6.99657e-10 5.30953e-10 2.90554 0.965183 0.102902 2.0989e-10 6.99658e-10 5.30949e-10 10.2786 0.731801 0.0259123 2.09881e-10 6.99658e-10 5.30954e-10 2.22167 -0.733487 -0.20892 -9.87834e-15 -9.80602e-12 -1.26395e-13 -81.5812 25.4815 3.22602 12.2275 -5.60913 -22.0514 0.576889 -21.0605 3.10234 -2.97159e-10 -5.36578e-10 -1.41233e-09 -4.92984e-10 -9.33232e-10 -2.44678e-09 -2.97167e-10 -5.36577e-10 -1.41232e-09 -7.73091 5.47488 -0.417314 -2.9716e-10 -5.3658e-10 -1.41233e-09 -2.90554 0.965183 -0.102902 -2.97171e-10 -5.36579e-10 -1.41233e-09 -10.2786 0.731801 -0.0259123 -2.97154e-10 -5.36577e-10 -1.41234e-09 -2.22167 -0.733487 0.20892 -2.03217e-16 0.0 -3.88251e-19 -1.11092 -63.5071 8.43083 -0.446075 45.3638 1.01113 -2.14173 -3.19777 -11.3376 2.03217e-16 0.0 3.88251e-19 -2.33724 -9.56019 3.52943 0.086895 39.025 -1.81318 0.442828 -11.1824 -1.84241
-58.4649 73.8163 -34.5881 -226.519 85.0967 -207.267 -0.465431 31.5637 -5.24358 -1.71559 -8.93593 -1.03949 1.74569 19.3947 -0.917467 1.14857 -48.3814 -1.01284 -0.0 0.0 0.0 -0.0 0.0 0.0 -1.50381e-14 -1.07673e-11 -1.36217e-13 81.8819 27.0328 -0.758994 -13.7042 -6.71823 24.9608 -0.000236252 -0.438887 -0.0616827 -2.74043e-10 1.01626e-09 1.59913e-09 -4.68224e-10 1.75972e-09 2.7659e-09 -2.74039e-10 1.01626e-09 1.59913e-09 7.73091 5.47488 0.417314 -2.74044e-10 1.01626e-09 1.59913e-09 2.90554 0.965183 0.102902 -2.74035e-10 1.01626e-09 1.59912e-09 10.2786 0.731801 0.0259123 -2.74043e-10 1.01626e-09 1.59913e-09 2.22167 -0.733487 -0.20892 -1.51782e-14 -1.07673e-11 -1.36515e-13 -81.5417 25.6405 3.04336 12.2787 -5.64597 -22.1505 0.574732 -21.0247 3.09652 -6.72927e-10 -4.06182e-10 -2.86125e-09 -1.12303e-09 -7.08965e-10 -4.95595e-09 -6.72937e-10 -4.06181e-10 -2.86125e-09 -7.73091 5.47488 -0.417314 -6.7293e-10 -4.06184e-10 -2.86126e-09 -2.90554 0.965183 -0.102902 -6.72943e-10 -4.06184e-10 -2.86126e-09 -10.2786 0.731801 -0.0259123 -6.72924e-10 -4.06181e-10 -2.86126e-09 -2.22167 -0.733487 0.20892 -2.03217e-16 0.0 -3.88251e-19 -0.0964192 -63.2273 9.17813 -0.455072 45.6601 1.01094 -2.18702 -3.42625 -11.3836 2.03217e-16 0.0 3.88251e-19 -1.79968 -10.4194 3.69766 0.127614 40.7835 -1.82074 0.478303 -9.2559 -2.06615
-57.6271 73.9205 -34.3855 -224.82 85.3161 -205.377 -0.246771 31.5206 -5.1607 -1.75535 -8.93859 -1.00989 1.75737 19.3587 -0.899407 1.14 -48.1936 -0.986782 -0.0 0.0 0.0 -0.0 0.0 0.0 -1.39497e-14 -1.13502e-11 -1.4147e-13 81.863 27.1908 -0.680075 -13.7963 -6.79134 25.1449 -0.000429196 -0.625369 -0.0878927 -1.36869e-10 9.49245e-10 1.2353e-09 -2.31764e-10 1.64403e-09 2.13626e-09 -1.36865e-10 9.49251e-10 1.2353e-09 7.73091 5.47488 0.417314 -1.3687e-10 9.49246e-10 1.2353e-09 2.90554 0.965183 0.102902 -1.3686e-10 9.49247e-10 1.2353e-09 10.2786 0.731801 0.0259123 -1.36868e-10 9.49246e-10 1.2353e-09 2.22167 -0.733487 -0.20892 -1.40768e-14 -1.13509e-11 -1.41745e-13 -81.5383 25.8172 2.93774 12.3684 -5.71082 -22.3243 0.586882 -21.238 3.13091 -3.91508e-10 -3.59309e-10 -2.37773e-09 -6.43471e-10 -6.24843e-10 -4.11528e-09 -3.91518e-10 -3.59307e-10 -2.37772e-09 -7.73091 5.47488 -0.417314 -3.91511e-10 -3.5931e-10 -2.37773e-09 -2.90554 0.965183 -0.102902 -3.91524e-10 -3.5931e-10 -2.37773e-09 -10.2786 0.731801 -0.0259123 -3.91505e-10 -3.59308e-10 -2.37774e-09 -2.22167 -0.733487 0.20892 -2.03217e-16 0.0 -3.88251e-19 0.852018 -62.9296 9.83573 -0.463542 45.9441 1.01125 -2.23991 -3.71068 -11.4079 2.03217e-16 0.0 3.88251e-19 -1.24861 -11.3581 3.85311 0.174288 42.6653 -1.8329 0.540415 -7.19396 -2.23146
-56.7934 74.0338 -34.1925 -223.185 85.5154 -203.579 -0.0300814 31.4855 -5.07394 -1.78997 -8.95128 -0.979363 1.78053 19.3538 -0.888245 1.11317 -48.0635 -0.979971 -0.0 0.0 0.0 -0.0 0.0 0.0 -1.15535e-14 -1.16241e-11 -1.41619e-13 81.8531 27.3495 -0.619802 -13.8916 -6.86749 25.3358 -0.000799689 -0.837005 -0.117641 3.9201e-10 6.42289e-10 2.77846e-11 6.7968e-10 1.11311e-09 4.69984e-11 3.92014e-10 6.42296e-10 2.77752e-11 7.73091 5.47488 0.417314 3.92009e-10 6.42292e-10 2.77809e-11 2.90554 0.965183 0.102902 3.9202e-10 6.42293e-10 2.77833e-11 10.2786 0.731801 0.0259123 3.9201e-10 6.42292e-10 2.77866e-11 2.22167 -0.733487 -0.20892 -1.16581e-14 -1.16247e-11 -1.41848e-13 -81.5595 26.0053 2.87991 12.4865 -5.79637 -22.5542 0.609602 -21.623 3.19341 3.28963e-10 -3.44514e-10 -7.33015e-10 5.79028e-10 -5.93079e-10 -1.26096e-09 3.28954e-10 -3.44512e-10 -7.3301e-10 -7.73091 5.47488 -0.417314 3.2896e-10 -3.44514e-10 -7.33016e-10 -2.90554 0.965183 -0.102902 3.2895e-10 -3.44515e-10 -7.3302e-10 -10.2786 0.731801 -0.0259123 3.28966e-10 -3.44515e-10 -7.3303e-10 -2.22167 -0.733487 0.20892 -2.03217e-16 0.0 -3.88251e-19 1.77395 -62.5968 10.4611 -0.470752 46.1798 1.01141 -2.30842 -4.07234 -11.4364 2.03217e-16 0.0 3.88251e-19 -0.673927 -12.3795 4.00874 0.226385 44.6514 -1.84891 0.622547 -4.99266 -2.35834
